<svg id="Layer_1" data-name="Layer 1" xmlns="http://www.w3.org/2000/svg" viewBox="0 0 447.57 473.69"><defs><style>.cls-1{fill:#0075bf;}</style></defs><title>logo-world-cafe-live-home</title><path class="cls-1" d="M206.34,96.82c4.56,0,12.75-8.41,14.68-9.16,3-1.18,12.37-10,12.37-11.76,0-1-1.17-5.24-3.48-5.83a10,10,0,0,0-2.36-.3c-9.08,0-16.57,12.89-19.27,15.81a13.23,13.23,0,0,0-3.49,9.16C204.79,95.57,204.41,96.82,206.34,96.82Z" transform="translate(-21.54 -22.43)"/><path class="cls-1" d="M447.66,482.12a7.82,7.82,0,1,0,7.82-7.94A7.75,7.75,0,0,0,447.66,482.12Zm12-2.39a2.88,2.88,0,0,1-2.69,3l3.19,4.75h-1.54l-3-4.75h-2.21v4.75h-1.32v-10.7h4.1C458.64,476.77,459.71,477.81,459.71,479.73Z" transform="translate(-21.54 -22.43)"/><path class="cls-1" d="M397.53,421.36H431.3c-0.37-11.67-9.71-15.24-17.07-15.24C410,406.12,398.25,407.48,397.53,421.36Z" transform="translate(-21.54 -22.43)"/><path class="cls-1" d="M423.15,79.35c7-1.4,14.27-6.41,14.27-8.38,0-1.21-.95-2.36-1.75-2.36-8.27,0-16.4,7.56-18.13,10.44C420,81.86,422.39,79.5,423.15,79.35Z" transform="translate(-21.54 -22.43)"/><path class="cls-1" d="M458.39,479.73c0-1.49-1.25-1.84-2.54-1.84h-2.41v3.71h1.74C456.8,481.59,458.39,481.54,458.39,479.73Z" transform="translate(-21.54 -22.43)"/><path class="cls-1" d="M127.55,92l-1.68-3.9c3.87-3.62,4-5.23,6.17-10.86,0.3-.66,2.39-5.84.15-7.07-2-1.17-5.26,2.49-5.26,2.49-0.23.16-2.39,2.17-6.17,6.25-3.42,3.66-6.58,13.67-6.58,16.35a34.93,34.93,0,0,0,9.58-5.11l0.08,1-0.63-9Z" transform="translate(-21.54 -22.43)"/><path class="cls-1" d="M107.63,96.07c0-10.08,6-18.27,8.49-21.76A28.9,28.9,0,0,1,133.2,63.4c5.78-1.66,5.78,15.16,3.62,20.17-1.77,0-2-.54-2-0.74l-0.06.24c-2,5.57-.34,4.4-5.64,10.73l-0.46.69L305.38,495.87H469.11V22.43H21.54V495.87h130.9L124.36,98.41c-2.86,2-8.32,5.16-10.93,5.16C112.42,103.57,107.63,101.07,107.63,96.07Zm357.11,386a9.25,9.25,0,1,1-9.25-9.26A9.13,9.13,0,0,1,464.73,482.12Zm-8.12-69.55c4.29,9.46,4.1,19,3.95,25.57h-63.4c0.37,3,.73,6.59,3.08,10,2.34,3.7,7.36,7.43,15.61,7.43,15.45,0,17.25-4.69,18.86-7.92l25.85,6.74c-1.09,1.53-2.16,3.22-3.26,4.73-7.51,10-21.71,18.79-40.91,18.79-31.61,0-48.65-22.34-48.65-46.22,0-28.47,22.1-44.69,45.75-44.69C433.62,387,450,398.51,456.61,412.57ZM443.88,70.2c0.27,3-.42,4-2.16,7.29s-18,10.25-21.56,10.25c-1.56,0-6.95-2.35-6.95-2.35C411.92,88,411.5,87.62,411.5,91c0,9.34,9.61,9.34,13.82,9.33,5.28,0,9-2.8,9.94-2.8,0.68,0,1.44,1.33,1.72,1.58-2.81,3.07-8.28,7.74-15.53,7.75-10.29,0-17.27-9.79-17.27-15.37,0-4.67,3.19-12.75,10.36-19.09,0.07-.12,9.22-10.24,18.56-10.25S443.38,64.7,443.88,70.2ZM373.7,87.43c0.8-2,3.47-16,3.47-19.65,0,0,1.33.3,1.33-4.64,0,0,3.87-10.81,3.87-13.51,0-2.88,6.49-19.2,19.51-19.2,13.47,0,14.69,14.8,17.27,19.66v3.27h-2.58c-1.48-1.6-5.16-17.23-14.69-17.23-3.27,0-12.59,6.79-12.59,12.11,0,0-3,7.93-3,10.7,0,0-6,22.92-6,27.1,0,1-.53,2.81.88,2.81,0,0,13.81-2.36,13.81,0,0,5.69-9.41,4.11-12.94,6-6.83,3.72-5.62,2-6.08,13.06-0.15,5.12-1.29,5.31-1.29,6.6,0,0.64.46-1.55,0.46-.9,0,1.85-3,8.83-6.08,8.83-1,0-2.16-1.59-2.16-4.21,0,0,1.41-3.72,4.33-19.66h-2.58c-2.32.68-3.23,1.4-5.2,1.4-2.66,0-4.82-3-4.82-4.62C358.52,91.16,370.43,95.82,373.7,87.43ZM357.93,60.22c4.31,0,4.83,1,4.83,4.66,0,3.27-.61,4.94-3.28,5.59-0.52-3.63-.6-4.18-2.86-4.18-3.11,0-15.71,10.43-17.7,11.64-0.43.27-12.08,14-12.08,19.08,0,0.85,3.28,1.88,3.88,1.88,0,0,1.12-.57,6-3.28,3-1.67,4.4-2.41,5.61-3.24,5.87-4,9.67-11.18,11.66-11.18a6.07,6.07,0,0,1,3.45,5.11c0,1.68-1,1.78-1.3,2.33,0.43,1.21-2.6,24.13-3.87,24.77l-1,.27c-4.36,0-4.21-17.58-4.21-17.58s-12,8.47-15.55,8.47h-3c-4.48,0-7.33-4.57-7.33-8.46,0-8.4,6.3-14.25,13.81-22.36C341.17,67.11,350.76,60.22,357.93,60.22Zm-65.2,6.07c5.36-5.22,20-16.78,25.49-16.78,5.26,0,5.15,6.25,5.15,10.72v6.06c0,1.39,1.3,1.86,1.3,2.78,0,0-1.37,5.13-3,5.13-3.43,0-3.87-6.9-3.87-12.58,0-1.67-.35-3.62-1.3-4.64,0,0-20.29,7.54-29.78,32.22a26.44,26.44,0,0,0-.45,5.14c0,0.45,2.42,3.7,6.48,3.7,5.52,0,15.28-4.18,18.14-4.18,0.61,0,0,1.21,0,1.86,0,0-3.55,9.77-22.44,9.77-0.09,0-7.77-2.23-7.77-8.85,0-.19-0.89-0.27-0.89-2.78C279.77,85.92,286.25,72.61,292.72,66.29Zm9.87,321.08,20.25,53.74,28.65-81.79,31.07-.47-43.77,117-29.53.47-39.15-89H302.6ZM225.72,63.14c7.82-3.16,11.22,8.51,11.52,9,0.86-.67,10.52-12.42,10.52-19.59,0,0,2.33-4.17,2.33-5.41,0-.17-1.79-6.51.75-7.93,1.41-.74,2.57-0.91,3.88,0,2,1.33,0,6.17,0,6.68,0,2-.94,15.32-17.86,35.84a52.92,52.92,0,0,1-16.23,13.42c-4.49,2.83-11.14,7.91-15.07,8.33l-0.6,0c-4.42,0-6.92-5.2-6-9.2C203.41,75.48,219.48,65.73,225.72,63.14Zm-31.4-7.25c5.1-16.4,3.55-19.16,5.42-19.16,2.77,0,3.32,3,3.09,5.42a99.26,99.26,0,0,1-4.64,19.59c-0.46,1.33-3.08,9.16-3.08,9.16-2.64,9.84-3.88,10.25-4.26,12.93-0.15,1.08-7,20.49-7,21.75l-2.7,13.33-0.52.08c-1.9,0-4.12-3.16-4.12-5.91,0-6.42,5.65-17.26,11.59-38C188.22,74.73,190.93,67,194.32,55.89ZM139,99.56c1.17-10.15,3.49-11.16,5-17a87.68,87.68,0,0,1,4.65-11.66s1-5.42,2.7-5.42c0,0,3.47.83,3.47,2.5a44,44,0,0,1-1.92,8.75c16.14-12.66,20.8-13.75,23.49-15,0,0,2.48-1.68,7.35-1.68,0.84,0,1.15,1.17,1.15,2.1,0,0-5.25,5-7.72,5,0,0-15.21,9.67-20.79,14.6-8,7.08-7,8.16-9.28,10.83-3.79,4.51-1.24,10.76-5.42,10.76,0,0-.76-1-2.71,0A35.59,35.59,0,0,1,139,99.56ZM52.37,82.39c5.26-12.26,6-13.34,7.34-13.34,0,0,3.48,1.26,3.48,3.34,0,1.58-5.18,10.09-5.8,11.26a36.2,36.2,0,0,0-3.46,11.23c11-5,21.14-27.09,21.23-22.08,0,2.16,3.09,1.83,3.09,3.33,0,2.26-1.16,3-1.16,3.75-0.3,7.17.32,16.26,5,16.26,0.4,0,4.87-.51,13.22-12.49,8.89-12.76,6.11-17.1,9.67-17.1,2.86,0,2.3,3.51,2.3,4.17,0,6.34-7,15.24-8.87,19.17-1.08,2.16-12.83,13.76-17.09,13.76-7.8,0-9.19-13.42-10.81-15-1,2.33-14,14.58-18.54,14.58-3.09,0-4.25-2.75-4.25-6.24C47.73,96.89,47.9,92.81,52.37,82.39ZM137,475.6H38V344.4H74V446.29h61.25Z" transform="translate(-21.54 -22.43)"/><path class="cls-1" d="M124.42,98.37l-0.58-7.25,0.52,7.29Z" transform="translate(-21.54 -22.43)"/><polygon class="cls-1" points="107.09 72.08 107.11 72.06 106.01 69.56 107.09 72.08"/><path class="cls-1" d="M186.41,496.12c0-1.95,0-3.93,0-5.87l-1.74-.41v-2c0-.06.06-0.13,0.09-0.2s0,0,0,0a0.21,0.21,0,0,1-.09,0,0.4,0.4,0,0,1-.05-0.06l-0.76-.84a0.31,0.31,0,0,1-.1-0.13,1.51,1.51,0,0,1,0-.23c0-.44,0-0.93,0-1.35a4.28,4.28,0,0,0-.26-1.57,2.92,2.92,0,0,0-.37-0.55c-1.25-1.5-3.43-2-4.91-3.3a4,4,0,0,1-1.17-1.56,0.92,0.92,0,0,1-.08-0.37c0-1.19,0-2.45,0-3.65a2.63,2.63,0,0,0-.05-0.41,33.88,33.88,0,0,1,0-5.25V451.89c0-.61,0-1.21,0-1.79a4.22,4.22,0,0,1,.21-1.62,6.32,6.32,0,0,1,.63-1.2,5.53,5.53,0,0,1,.83-1,1.86,1.86,0,0,1,.53-0.37,5,5,0,0,1,.71-0.2,1.12,1.12,0,0,0,.65-0.26c0.08-.13.17-0.3,0.26-0.42l0.11-.12a3.82,3.82,0,0,0,.86-1,3.05,3.05,0,0,0,.38-1.5,3.38,3.38,0,0,1-1.49-1.08,0.13,0.13,0,0,1-.06-0.12c0-.43,0-0.85,0-1.3a4.25,4.25,0,0,0-.13-1.2,0.06,0.06,0,0,0-.06,0,2.84,2.84,0,0,1-2.42-1.31l-0.22-.25a0.2,0.2,0,0,1-.08-0.16c0-.65,0-1.37-0.07-2,0-.3,0-0.59,0-0.9,0,0,0-.05,0-0.07a1.12,1.12,0,0,0-.2,0,10.63,10.63,0,0,1-1.33-.1,13.61,13.61,0,0,1-3.73-1.17,14.66,14.66,0,0,1-4.12-2.41,10.13,10.13,0,0,1-2.59-3.93c-0.32-.78-0.58-1.6-0.83-2.44a9.7,9.7,0,0,1-.31-1.32c-0.14-.94-0.17-2-0.32-2.93,0-.24-0.1-0.46-0.12-0.7,0-.5.09-1.06,0.06-1.55a1.65,1.65,0,0,0-.18-0.63,2.77,2.77,0,0,0-.73-0.9c-0.29-.27-0.59-0.5-0.86-0.77a4.47,4.47,0,0,1-.37-0.45c-1.19-1.51-2.64-2.82-3.82-4.34a1.51,1.51,0,0,0-.18-0.22l-0.85-.78c-0.07-.07-0.15-0.12-0.22-0.19a2.32,2.32,0,0,1-.17-0.24,11,11,0,0,1-1.44-2.64,1.71,1.71,0,0,1-.06-0.34c0-.35-0.1-0.72-0.14-1.08a0.81,0.81,0,0,0-.07-0.35l-0.66-.74a1.68,1.68,0,0,1-.28-0.42,10.48,10.48,0,0,1-.82-2.7,9.24,9.24,0,0,1-.15-2.58,7.87,7.87,0,0,1,.24-1.16c0.58-2.24,1.31-4.33,2-6.42a19.66,19.66,0,0,0,1-3.19h0.28s0,0,0,.06c0,0.29-.09.67-0.08,1h0.08a0.55,0.55,0,0,1,0-.25,2.44,2.44,0,0,0,.31-0.9,1.63,1.63,0,0,0,0-.44c0-.05,0,0,0,0s0,0,0,0,0,0.25-.08.36-0.21,0-.31,0a4,4,0,0,1,.51-1.54h0.1c0,0.13.06,0.27,0.1,0.4a0.47,0.47,0,0,1,.09-0.33,0.56,0.56,0,0,0,0-.36,1.63,1.63,0,0,1-.09-0.33,0.59,0.59,0,0,1,.07-0.34,0.07,0.07,0,0,1,.07,0h0.13s0,0,0-.06a2.91,2.91,0,0,1,0-.45,0.45,0.45,0,0,0,.21,0,1.13,1.13,0,0,0,0-.56,1.5,1.5,0,0,1,0-.55,3.86,3.86,0,0,1,.14-0.47c0.24-.77.5-1.53,0.74-2.3,0-.15.11-0.3,0.14-0.46s0-.09,0-0.14a0.11,0.11,0,0,1,0,0,0.93,0.93,0,0,0,.1-0.29c0.1-.31.2-0.61,0.3-0.92q0.58-1.85,1.19-3.69l0.59-1.84c0.39-1.23.81-2.45,1.19-3.69s0.78-2.46,1.19-3.69,0.79-2.46,1.19-3.69c1.59-4.92,3.18-9.83,4.76-14.75,0.59-1.84,1.21-3.68,1.8-5.51s1.19-3.66,1.81-5.51l0.61-1.83c0.2-.61.4-1.22,0.63-1.82a14.39,14.39,0,0,1,2.68-4.63,4.52,4.52,0,0,1,1.43-1.08l-0.1.1s0,0,0,0,0.06,0,.07.07,0.05,0.17.07,0.27a0.1,0.1,0,0,1,0,.12,5.21,5.21,0,0,0-.73,1.32c-0.51,1.24-.8,2.61-1.22,3.91a0.9,0.9,0,0,0,0,.29V333a0.72,0.72,0,0,1-.06.29c-1.15,2.94-2,6.23-3.16,9.18a2.53,2.53,0,0,0-.18.51c0,0.22,0,.42-0.07.61a2.27,2.27,0,0,1-.17.51c-0.31.81-.63,1.68-0.92,2.5a0.81,0.81,0,0,0-.06.28,3.86,3.86,0,0,1,0,.51,0.55,0.55,0,0,1,0,.12c-0.77,1.88-1.44,3.81-2.07,5.81-0.22.7-.43,1.4-0.64,2.1-1.47,4.93-2.76,10-4.57,14.61,0,0,0,.08,0,0.12a2.53,2.53,0,0,0,0,.51,1.62,1.62,0,0,1-.14.55c-0.29.85-.62,1.66-0.92,2.5a1.79,1.79,0,0,0-.16.53,2.3,2.3,0,0,1,0,.65c-0.67,1.84-1.29,3.72-1.9,5.64-0.22.69-.46,1.37-0.68,2.07s-0.49,1.37-.66,2.08-0.24,1.58-.45,2.28c-0.1.35-.23,0.68-0.36,1a20.81,20.81,0,0,0-1.48,5.38s0,0,.05,0h0.06a5.29,5.29,0,0,1,.32-1.26c0.13-.37.29-0.74,0.44-1.1a2.36,2.36,0,0,0,.18-0.59c0-.22,0-0.44.08-0.69a1.3,1.3,0,0,1,.1-0.28c0.57-1.46,1-3.1,1.56-4.58a0.78,0.78,0,0,0,.09-0.3c0-.25,0-0.6,0-0.85,0.08,0,.18,0,0.27-0.09s0,0,0-.1,0-.08,0-0.13a3,3,0,0,1,.08-0.54l0.08-.23c0.32-.94.53-2,0.83-2.89,0.1-.3.23-0.6,0.35-0.89,1.3-3.25,2.24-6.9,3.39-10.29,0.3-.89.65-1.86,1-2.71a3.3,3.3,0,0,0,.16-0.46c0.08-.33.08-0.75,0.16-1.07a4.17,4.17,0,0,1,.16-0.47c0.66-1.84,1.27-3.7,2-5.48a3.14,3.14,0,0,0,.16-0.47c0.07-.34.05-0.79,0.13-1.11a3.28,3.28,0,0,1,.17-0.45c1.33-3.26,2.33-6.77,3.4-10.29q0.58-1.91,1.16-3.81c0.39-1.26.83-2.49,1.28-3.7,0.22-.6.45-1.18,0.7-1.78a3.36,3.36,0,0,0,.3-0.94c0-.2,0-0.38.06-0.56a2.87,2.87,0,0,1,.14-0.49c0.22-.62.4-1.26,0.6-1.89s0.42-1.25.65-1.84,0.46-1.19.73-1.76a3.8,3.8,0,0,1,.22-0.41,1.31,1.31,0,0,1,.33-0.3l0.18-.13a0.11,0.11,0,0,0,0-.11c0-.09,0-0.24,0-0.3a0.21,0.21,0,0,1,.06-0.1l0.69-.86a0.41,0.41,0,0,0,.09-0.22c0-.08,0-0.18,0-0.26a0.4,0.4,0,0,1,.1-0.21,4.38,4.38,0,0,1,1-.55,1.09,1.09,0,0,0,.55-0.7,6.65,6.65,0,0,0,.8-0.2s0,0,0,0,0,0.21,0,.27a0.2,0.2,0,0,1-.11.11l-0.24.2a1,1,0,0,1-.66.22s0,0,0,0,0,0.28-.08.41c-0.24.87-.93,1.44-1.13,2.34a0.12,0.12,0,0,0,0,.1,2.85,2.85,0,0,0,.6-0.09l0.21,0.51a10.19,10.19,0,0,0-.73,2.67c-0.11.43-.27,0.86-0.41,1.29-0.54,1.72-1.1,3.43-1.74,5.05a7.45,7.45,0,0,0-.41,1.29,11.06,11.06,0,0,1-.33,1.38c-0.14.42-.32,0.81-0.47,1.22-1.25,3.29-2.25,6.82-3.32,10.27-0.27.86-.52,1.73-0.81,2.59-0.18.54-.34,1.07-0.53,1.6a0.94,0.94,0,0,0-.09.33,2.29,2.29,0,0,1,0,.61c-0.26.78-.58,1.57-0.87,2.31a1.2,1.2,0,0,0,0,.41,1.17,1.17,0,0,1,0,.39c-0.42,1.14-.85,2.28-1.29,3.38-0.08.2-.17,0.4-0.25,0.6a2.84,2.84,0,0,0-.13.73,4.75,4.75,0,0,1-.37,1.34,17.71,17.71,0,0,0-1.11,4h0l0.48,0.1a1.4,1.4,0,0,0,.48.05,1.14,1.14,0,0,0,.39-0.17l0.38-.19a0.15,0.15,0,0,0,0-.1,0.89,0.89,0,0,1-.7-0.18,1.07,1.07,0,0,1-.13-0.75,0.87,0.87,0,0,1,0-.21,0.83,0.83,0,0,1,.08-0.14,11,11,0,0,0,.67-2.43c0.13-.46.29-0.9,0.44-1.33,0.46-1.3.95-2.61,1.41-3.91a13,13,0,0,0,.45-1.32c0.06-.26.07-0.52,0.11-0.77a4.32,4.32,0,0,1,.2-0.69c1.15-3.27,2-6.88,3.25-10a2.6,2.6,0,0,0,.2-0.69A7.67,7.67,0,0,1,176,347a6.22,6.22,0,0,1,.23-0.66c1.24-3.49,2.47-7,3.57-10.6a13.72,13.72,0,0,0,.4-1.38c0.1-.49.15-1,0.28-1.49a4.52,4.52,0,0,1,.57-1.2c0.22-.37.45-0.73,0.65-1.13a4,4,0,0,0,.26-0.63,4.49,4.49,0,0,1,.3-1.26l0.11-.12c0.14-.15.26-0.35,0.4-0.49s0,0,0-.05a0.79,0.79,0,0,1-.14,0c0.21-.3.45-0.61,0.65-1,0.37-.63.6-1.45,1-2.06a1.7,1.7,0,0,1,.34-0.42,2.9,2.9,0,0,1,.67-0.16l0.1-.45a0.17,0.17,0,0,1,.06-0.11,1.44,1.44,0,0,1,1-.35,1.48,1.48,0,0,1,.34,0l0.12,0.06c0.05,0,.1,0,0.1.08s0,0.28,0,.41a0.63,0.63,0,0,1-.11.27,0.91,0.91,0,0,0-1.14.63h-0.29a2.46,2.46,0,0,1-.55,1,1.93,1.93,0,0,0-.38,1.22c0.31,0,.63,0,0.92,0a5.57,5.57,0,0,1-.21,1.49,24.63,24.63,0,0,1-.9,2.42,4.15,4.15,0,0,0-.2.62,6.5,6.5,0,0,0-.08.75,4.17,4.17,0,0,1-.4,1.26c-0.47,1.2-.87,2.46-1.28,3.69l-0.83,2.48c-0.83,2.49-1.48,5.15-2.41,7.53a10.93,10.93,0,0,0-.42,1.23c-0.23.88-.34,1.86-0.63,2.69-0.73,2-1.37,4.17-2,6.26-0.52,1.67-1.07,3.35-1.69,4.93-0.33.84-.31,1.86-0.61,2.71s-0.7,1.55-.93,2.38h0.06a0.7,0.7,0,0,0,.18-0.18,4.51,4.51,0,0,1,1.62-1,4.37,4.37,0,0,1,2.51-.24,2.16,2.16,0,0,1,.94.52l0.78,0.69a1.23,1.23,0,0,1,.26.48c0.07,0.19.12,0.38,0.19,0.54a1,1,0,0,0,.89.58h0l0.31-.51a2.56,2.56,0,0,1-.54-0.54c-0.16-.2-0.31-0.4-0.44-0.6a7.46,7.46,0,0,1-.77-1.3,1.56,1.56,0,0,1-.07-0.2,0.22,0.22,0,0,1,0-.2,1.46,1.46,0,0,0,.12-0.4,7.12,7.12,0,0,1,.17-0.87c0.2-.59.48-1.09,0.67-1.66a0.74,0.74,0,0,0,0-.24,1.81,1.81,0,0,1,0-.5c0.09-.24.21-0.5,0.29-0.75,0.37-1,.64-2.12,1-3.21,0.15-.53.32-1.06,0.49-1.59,1.32-4.21,2.67-8.42,4-12.58,0.85-2.58,1.76-5.19,2.66-7.73a5,5,0,0,0,.23-0.81,6.24,6.24,0,0,1,.4-1.67,3.88,3.88,0,0,0,.6-1.48,3,3,0,0,1,.18-0.86,30.13,30.13,0,0,0,1.06-3.09c0.16-.53.28-1.11,0.44-1.65a4.48,4.48,0,0,1,.63-1.45,1,1,0,0,1,.33-0.19l0.18-.08a0.21,0.21,0,0,0,.14-0.12c0-.15,0-0.3.09-0.43a0.74,0.74,0,0,1,.09-0.17,12.4,12.4,0,0,1,.85-1.48,1.65,1.65,0,0,1,.56-0.48c0.69-.36,1.7-0.42,2.4-0.77a0.8,0.8,0,0,1,0,.16c0,0.05,0,0,0,.07l-0.07,0c-0.33.25-.44,0.66-0.76,0.91a5.68,5.68,0,0,1-.58.37l-0.44.27a0.48,0.48,0,0,1-.24,0s0,0,0,0,0,0.17,0,.24,0,0,0,0-0.2,0-.28,0a3.66,3.66,0,0,0-.24,1.42,1.87,1.87,0,0,1,0,.21,0,0,0,0,1,0,0l-0.56.08c-0.06.22-.07,0.47-0.12,0.7,0,0,0,0,0,0,0.28,0,.6,0,0.89,0h0a11.26,11.26,0,0,1-.66,2.81c-0.29.86-.62,1.69-0.94,2.54a5.74,5.74,0,0,0-.39,1.34c0,0.26,0,.52-0.1.77s-0.13.45-.2,0.67c-0.41,1.32-.85,2.63-1.32,3.89-0.16.42-.34,0.83-0.48,1.26-0.3.89-.4,1.86-0.68,2.8-0.13.43-.3,0.85-0.45,1.29-1.05,3-1.94,6.17-2.86,9.31-0.52,1.79-1.08,3.56-1.64,5.31-0.69,2.18-1.4,4.4-2.11,6.58-0.14.43-.28,0.87-0.45,1.29a13.25,13.25,0,0,0-.94,2.62l0.51-.1c1.75-3,2.58-6.94,3.92-10.37a1.3,1.3,0,0,0,.07-0.19,3.68,3.68,0,0,0,0-.52,1,1,0,0,1,.13-0.39c0.15-.35.32-0.74,0.47-1.09,0.08-.2,0-0.54,0-0.73,0.39-1.08.76-2.2,1.18-3.24,0.08-.2,0-0.53,0-0.74l0.07-.19c0.14-.37.33-0.75,0.47-1.09a1.49,1.49,0,0,0,.07-0.2,1.35,1.35,0,0,0,0-.23c0-.15,0-0.31,0-0.47s0-.16,0-0.24a1.43,1.43,0,0,1,.07-0.19c0.24-.62.46-1.3,0.65-2,0.31-1.09.62-2.17,0.95-3.21,1-3.15,2-6.27,3.09-9.39,0.35-1,.73-2.08,1-3.14s0.54-2.23.9-3.26a8.91,8.91,0,0,1,.61-1.47c0.25-.44.67-0.72,0.9-1.18s0.42-1,.65-1.43a4,4,0,0,1,2-2.21,3.17,3.17,0,0,1,1.84-.08c0,0.13.07,0.22,0.08,0.34s0,0.05,0,.09a1.64,1.64,0,0,1-.27.19l-0.28.19a5.33,5.33,0,0,0-2.13,1.64,0.46,0.46,0,0,0-.07.17c0,0.21,0,.42-0.07.63a3.79,3.79,0,0,1-.21.73l-0.12.36a1.74,1.74,0,0,0-.11.44h0a2.35,2.35,0,0,1,1-.39,13.07,13.07,0,0,1-.36,2.1c-0.41,1.63-1,3-1.51,4.55a6.05,6.05,0,0,0-.28.93c-0.07.36-.07,0.73-0.15,1.05s-0.2.62-.3,0.92c-0.38,1.23-.76,2.47-1.15,3.7-0.49,1.53-1,3.05-1.56,4.5a3.31,3.31,0,0,0-.28.93c0,0.2,0,.38,0,0.57a2.38,2.38,0,0,1-.1.5c-0.09.31-.21,0.58-0.32,0.89s-0.36.88-.52,1.29a1.84,1.84,0,0,0-.09.22c0,0.17,0,.44,0,0.61a0.93,0.93,0,0,1-.09.22l-0.46,1a0.72,0.72,0,0,0-.08.23,4.56,4.56,0,0,1,0,.6,2.13,2.13,0,0,1-.08.23c-0.56,1.55-1.1,3.22-1.58,4.78-1.14,3.72-2.22,7.47-3.48,11.06a18.21,18.21,0,0,0-.56,1.87c-0.15.65-.29,1.31-0.47,2s-0.39,1.21-.6,1.83c-0.6,1.83-1.09,3.75-1.68,5.59-0.38,1.21-.84,2.38-1.28,3.57a14.83,14.83,0,0,0-1,3.87,4.37,4.37,0,0,1-1.54-.3c-0.38,2.42-1.57,4-1.85,6.55l0.83,0.28c0.07,0,.09,0,0.12,0a12.81,12.81,0,0,0,.55-1.25,7.81,7.81,0,0,0,.34-1.47c0.07,0,.21,0,0.28,0s0,0,0,0a3.08,3.08,0,0,1,0,.34c0,0.23,0,.47,0,0.69a1.65,1.65,0,0,0,0,.35s0,0,0,0h0.17s0,0,0-.05c0.06-.31.11-0.63,0.19-0.93a21.07,21.07,0,0,1,.92-2.45,3.3,3.3,0,0,0,.25-0.88,4.93,4.93,0,0,1,.15-1c0.19-.55.4-1.13,0.59-1.66,0.38-1.11.76-2.25,1.14-3.36,0.09-.27.2-0.55,0.28-0.85,0.15-.6.21-1.29,0.37-1.88,0.08-.29.18-0.57,0.28-0.85,0.79-2.23,1.46-4.52,2.2-6.79,0.56-1.7,1.09-3.41,1.68-5.07,0.29-.84.59-1.65,0.91-2.47,0.08-.21.18-0.39,0.24-0.59a1.1,1.1,0,0,0,0-.28,2.18,2.18,0,0,1,0-.54,26,26,0,0,1,.87-2.5l0-.1c0-.2,0-0.5,0-0.68l0.07-.21c0.35-1,.67-1.95,1-2.94,0.94-2.83,1.77-5.72,2.71-8.54,0.19-.56.38-1.12,0.55-1.7,0.51-1.75.87-3.57,1.51-5.24,0.15-.4.33-0.8,0.51-1.18a2.19,2.19,0,0,0,.17-0.39c0.11-.44,0-1.12.18-1.51a0.32,0.32,0,0,1,0-.1,0.2,0.2,0,0,1,.1,0l0.21-.07a3.62,3.62,0,0,0,.22-1.28,3.89,3.89,0,0,1,.16-0.59l0.18-.58A0.63,0.63,0,0,1,197,333l0.19-.19a2.28,2.28,0,0,0,.26-1.25,2.51,2.51,0,0,1,.14-0.62,39.19,39.19,0,0,1,2.14-5.38,4.07,4.07,0,0,0,.49-1,4.1,4.1,0,0,1,.16-0.59,2.19,2.19,0,0,1,.28-0.47c0.21-.29.44-0.56,0.68-0.83a8.27,8.27,0,0,1,1.14-1.11,0.75,0.75,0,0,1,.35-0.21c0.31,0,.64,0,0.94,0a2.74,2.74,0,0,1,.73,0,1.19,1.19,0,0,0,.63-0.06,5,5,0,0,1,.64-0.17v0.39s0,0,0,0a0.76,0.76,0,0,0-.51.36,0.74,0.74,0,0,1-.55.33c-0.54.09-1.16,0-1.7,0-0.48,1.39-1.5,2.24-1.52,4.09l0.71,0.18a0.15,0.15,0,0,0,.16,0l0.44-.27s0,0,0,0a3,3,0,0,1,0,.54,7.37,7.37,0,0,1-.3,1.42c-0.27.89-.66,1.63-0.88,2.54-0.15.62-.22,1.31-0.39,1.89-0.09.3-.19,0.58-0.28,0.86-0.38,1.16-.74,2.3-1.12,3.45-0.26.77-.54,1.58-0.78,2.36a0.9,0.9,0,0,0,0,.27,1.86,1.86,0,0,1,0,.53c-0.53,1.71-1.18,3.4-1.75,5.1a1.49,1.49,0,0,0-.07.21c0,0.17,0,.41,0,0.58a0.76,0.76,0,0,1-.07.22c-0.55,1.56-1,3.15-1.55,4.74-1.1,3.48-2.12,7-3.19,10.51-0.71,2.33-1.44,4.65-2.21,6.93-0.38,1.13-.8,2.26-1.16,3.41-0.82,2.61-1.45,5.41-2.37,7.91-0.1.28-.22,0.56-0.3,0.84-0.18.6-.27,1.23-0.42,1.85,0.8-2.4,2-4.65,2.83-7a5,5,0,0,0,0-.72,3.09,3.09,0,0,1,.12-0.39c0.25-.75.56-1.48,0.85-2.19,0.1-.25.21-0.48,0.29-0.72a3.37,3.37,0,0,0,.13-0.89,2.76,2.76,0,0,1,.16-0.85l0.26-.74c0.89-2.52,1.7-5,2.53-7.6,0.33-1,.65-2.08,1-3.09,1.26-4.13,2.51-8.27,3.79-12.4,0.32-1,.64-2.05,1-3.08s0.65-2,1-3.07,0.65-2,1-3a8.85,8.85,0,0,0,.46-1.57,6.11,6.11,0,0,1,.37-1.65l0,0a0.29,0.29,0,0,1,.18,0c0.05,0,0,0,.06,0a4.62,4.62,0,0,0,.26-1.57,4.92,4.92,0,0,1,.39-1.43c0.34-.86.75-1.72,1.12-2.52a4.85,4.85,0,0,0,.27-0.63,6,6,0,0,0,.12-0.79,1.73,1.73,0,0,1,.23-0.68l0.37-.55a2.43,2.43,0,0,1,.18-0.27,0.07,0.07,0,0,1,.07,0h0.1c0.93,0.08,1.26.72,1.88,1.11,0,0,0,0,0,0a3.06,3.06,0,0,1,.47-1.08,2.3,2.3,0,0,1,1-.88,1.85,1.85,0,0,0,.28-0.09,1.51,1.51,0,0,1,.55-0.22,2.32,2.32,0,0,1,1.28.22,8,8,0,0,1,1.85,1.21c0.27,0.22.54,0.46,0.85,0.68l0.79,0.55a0.1,0.1,0,0,1,.07.12c0,0.3,0,.56,0,0.83a0.33,0.33,0,0,1,0,.17,3.87,3.87,0,0,0-.26,2l0.39,0.2a3.94,3.94,0,0,1,.24-1,5.54,5.54,0,0,1,.37-0.84,2.7,2.7,0,0,1,.51-0.7,0.76,0.76,0,0,1,.4-0.21,1.52,1.52,0,0,1,.22.07l0.28,0a3.73,3.73,0,0,1,.56,0c0.8,0.18,1,1.06,1.45,1.57a1.06,1.06,0,0,0,.34.27c0.26,0.12.74,0.09,1,.23a1.49,1.49,0,0,1,.34.26,5.73,5.73,0,0,1,.93,1.49c0.14,0.27.29,0.52,0.44,0.77,0.61,1,1.19,2.07,1.78,3.06,0.15,0.25.3,0.49,0.48,0.73a4.36,4.36,0,0,1,.49.72,4.08,4.08,0,0,1,0,2.12,4.42,4.42,0,0,0-.1,1.09,0.26,0.26,0,0,0,.09.21l0.19,0.12a0.94,0.94,0,0,1,.26.35,7,7,0,0,1,.77,1.66,5.51,5.51,0,0,1,.13,2.17,13.06,13.06,0,0,1-.45,2c-0.18.61-.36,1.25-0.52,1.9-0.48,2-.83,4-1.35,5.92-0.18.63-.36,1.26-0.52,1.9s-0.31,1.3-.45,2c-0.44,2-.79,4-1.27,6-0.16.65-.35,1.28-0.51,1.92-0.41,1.62-.47,3.57-1.11,4.93a0.12,0.12,0,0,0,0,.1s0,0.07,0,.12l0.23,0.67a4.66,4.66,0,0,1,.17,1,15.26,15.26,0,0,1-.08,3.45c-0.06.34-.14,0.67-0.21,1a16.59,16.59,0,0,1-.7,2.94,1.74,1.74,0,0,1-.19.41s-0.1.1-.15,0.15l-0.77.75v3.19a4.21,4.21,0,0,1,.22,1.5c0,0.56,0,1.15,0,1.71s0,1.13,0,1.7,0,1.14.06,1.67a14.78,14.78,0,0,0,.18,1.54,2.78,2.78,0,0,1,.05.38c0,1,.05,2,0.09,2.92a5.43,5.43,0,0,0,0,.81c0,0.25.09,0.5,0.11,0.75,0.2,1.81,0,4,.25,5.78a5.54,5.54,0,0,1,.11.76v0.86a4.77,4.77,0,0,0,0,.85c0.28,1.49,0,3.43.29,4.89a8.39,8.39,0,0,1,.1,1.63,8.13,8.13,0,0,0,.11,1.61q0.15,0.72.24,1.48a18.26,18.26,0,0,1,.06,3.29,17.78,17.78,0,0,1-.87,4.31,14.85,14.85,0,0,1-1,2.41c-0.2.37-.43,0.72-0.65,1.08a10.52,10.52,0,0,1-2.28,2.9,4,4,0,0,1-2.55.94,0.08,0.08,0,0,0,0,.06c0,1.33,0,2.66-.06,3.92a32.17,32.17,0,0,1-.54,4.82c0,0.19-.08.37-0.11,0.56s-0.05.4-.08,0.59c-0.11.8-.21,1.58-0.31,2.37a9.77,9.77,0,0,1-.24,1.09q-0.13.54-.26,1.09a32.79,32.79,0,0,0-.71,4,4.83,4.83,0,0,0,0,.61,5.94,5.94,0,0,1,1.26,1.48c0.38,0.53.78,1,1.18,1.56,0.79,1,1.61,2.05,2.35,3.14a43.73,43.73,0,0,1,3.89,7.07,40.07,40.07,0,0,1,1.48,4,37,37,0,0,1,1.1,4.38,52.9,52.9,0,0,1,.93,10.07l-0.25.09c-0.08,0-.15.08-0.22,0.11a4.73,4.73,0,0,1-1.88.21,0.2,0.2,0,0,0,0,.07c0,0.39.06,0.83,0.1,1.25a3.64,3.64,0,0,1-.06,1.09,1.11,1.11,0,0,0,0,.13s0,0,.05,0a1.31,1.31,0,0,1,1.17.86,2.89,2.89,0,0,1,.11.91,0.52,0.52,0,0,1,0,.22,2.54,2.54,0,0,0-.13.63c-0.11.88-.16,1.9-0.24,2.83a4.92,4.92,0,0,1-.12.9,2.7,2.7,0,0,0-.74.2,0.72,0.72,0,0,0-.29.66,0.25,0.25,0,0,1,0,.1l0,0.07a4.25,4.25,0,0,0,0,1.52,3.79,3.79,0,0,1-.09.84,16.9,16.9,0,0,0-.16,2.67h-2.53a14.56,14.56,0,0,0-.24-3.53h-1.12a9.23,9.23,0,0,0-1,2.43,1,1,0,0,0,0,.58,1.1,1.1,0,0,1,.21.52H202.1a7.85,7.85,0,0,0,.15-1.46c0-1.52,0-3.2,0-4.7-0.16-.08-0.34-0.14-0.5-0.22a2.65,2.65,0,0,1-1.85.82v5.56h-4.19a15.55,15.55,0,0,0-.22-3.61c-0.06,0-.13,0-0.2,0a1.87,1.87,0,0,1-.19-0.09,1.48,1.48,0,0,0-.73,0c-0.29.07-.56,0.18-0.83,0.26v0.41a2.17,2.17,0,0,1,0,.41,0.85,0.85,0,0,1-.06.12,7.89,7.89,0,0,0-.12,2.46h-6.91Zm24.64-169.74c0,0.13,0,.27,0,0.39l-0.71-.1c-0.1.46-.48,0.71-0.6,1.16-0.08.3-.06,0.75-0.15,1a1.45,1.45,0,0,1-.21.38l-0.23.36a3.51,3.51,0,0,0-.24.36,1.07,1.07,0,0,0,0,.7,2.81,2.81,0,0,1,.19.63c-0.27.18-.55,0.34-0.82,0.53v0.72l-0.32.09c0,0.2-.06.42-0.1,0.62h-0.2c0,0.37-.06.74-0.1,1.11v0a1.59,1.59,0,0,1-.11.28c-0.26.66-.53,1.34-0.79,2s-0.61,1.54-.85,2.34v0c0,0.27,0,.55,0,0.81l-0.15.1a0.48,0.48,0,0,0-.15.11,1.18,1.18,0,0,0,0,.27v0.83l-0.31.11c-0.13.73-.27,1.44-0.41,2.17-0.14.1-.28,0.2-0.41,0.31,0,0.24.07,0.48,0.1,0.71l-0.51.2a1.84,1.84,0,0,1-.43,1.11,1.12,1.12,0,0,0-.18.33,2.09,2.09,0,0,0,0,.41,3,3,0,0,1,0,.41,1,1,0,0,1-.08.23,1,1,0,0,0-.1.22,1.61,1.61,0,0,0,0,.28c0,0.1,0,.19,0,0.29L203,348a1.17,1.17,0,0,0-.25.11V349l-0.4.21c0,0.08.1,0.13,0.13,0.22a1,1,0,0,1,0,.39h-0.29v0.72h0.3a1.28,1.28,0,0,0,.09.51c-0.26,0-.43-0.11-0.7-0.1,0,0.34-.07.69-0.11,1h-0.3a8.52,8.52,0,0,1-.62,2.23,7.45,7.45,0,0,1-.46,1,1.84,1.84,0,0,0-.23.48c-0.16.6,0.06,1.39,0,2a2.42,2.42,0,0,1-.47,1c-0.34.5-.71,0.95-1,1.47a1.23,1.23,0,0,0-.13.22,1.72,1.72,0,0,0,0,.25c0,0.25,0,.53-0.07.76a0.64,0.64,0,0,1-.21.35,0.68,0.68,0,0,0-.31.3c-0.05.36-.05,0.67-0.08,1a1.19,1.19,0,0,1-.11.44c-0.23.49-.58,0.88-0.85,1.34a1.44,1.44,0,0,0-.19.37,2.94,2.94,0,0,0,0,.44v1.31l-0.26.21a1.07,1.07,0,0,0-.25.21,2,2,0,0,0-.13.38l-0.13.38a7.44,7.44,0,0,0-.25.77,0,0,0,0,0,0,0,1.66,1.66,0,0,0,0,.35c0,0.12,0,.24,0,0.36a1.13,1.13,0,0,1-.09.33,14.88,14.88,0,0,1-.89,1.94,4.14,4.14,0,0,0-.46,2.65h-0.41c-0.4,1.44-1,2.71-1.34,4.16a1.85,1.85,0,0,0-.1.67l0.31,0.11c0,0.1,0,.22,0,0.3h-0.4a6.72,6.72,0,0,1,.2,1l-0.1.1-0.71.09a0.75,0.75,0,0,1,.29.63h-0.3a3.58,3.58,0,0,1-.32.84,1,1,0,0,0-.09.29,2.44,2.44,0,0,0,0,.35c0,0.12,0,.26.05,0.36l-0.31.36a3.69,3.69,0,0,0-.31.37,0.92,0.92,0,0,0,0,.31,2.62,2.62,0,0,1,0,.3l-0.3.1v0.46a2.9,2.9,0,0,1,0,.46,0.84,0.84,0,0,1-.06.14c-0.14.32-.28,0.66-0.41,1a15.35,15.35,0,0,0-1.16,3.59c-0.06,0-.14.07-0.2,0.11h0.2c0,0.2,0,.4.06,0.6a0.71,0.71,0,0,1,0,.2,2.42,2.42,0,0,1-.18.27,0.37,0.37,0,0,0,0,.25,1.27,1.27,0,0,0,.05.21h0.59v0.52H189a0.33,0.33,0,0,0,.1.26,0.47,0.47,0,0,0,.11.15c0.09,0,.3,0,0.41,0a4.52,4.52,0,0,0,.92-2.36H191a5.56,5.56,0,0,1,.83-2.57h0.2a2.32,2.32,0,0,0,.2-0.88,0.71,0.71,0,0,1,.42-0.66c-0.07-.13-0.14-0.27-0.21-0.41a0.93,0.93,0,0,0,.39-0.58c0-.15,0-0.32,0-0.46a0.77,0.77,0,0,1,.11-0.38,1.36,1.36,0,0,1,.32-0.11c0-.45.06-0.89,0.1-1.33l0.21-.16a0.61,0.61,0,0,0,.21-0.16,0.78,0.78,0,0,0,0-.17l0-.19a3,3,0,0,1,.05-0.36A2.39,2.39,0,0,1,194,382a7.25,7.25,0,0,0,.61-1.9h0.51a2,2,0,0,1,.27-1.27s0,0,0-.05h-0.3a6.71,6.71,0,0,1,1-2.06c0-.24.05-0.58,0.08-0.85a1.13,1.13,0,0,1,0-.27,0.46,0.46,0,0,1,.15-0.12l0.16-.1c0-.28.06-0.54,0.08-0.82a4.44,4.44,0,0,0,.42-0.21c0-.09-0.06-0.21-0.1-0.3s0.26-.21.39-0.31a0.54,0.54,0,0,0,.13-0.11,1,1,0,0,0,0-.14c0-.25,0-0.46.06-0.7a1.39,1.39,0,0,1,0-.29,0.79,0.79,0,0,1,.08-0.12l0.08-.13a1.13,1.13,0,0,0,.15-0.27,0.64,0.64,0,0,0,0-.13,2.6,2.6,0,0,1-.14-0.37H198a6.46,6.46,0,0,1,.54-1.36,0.87,0.87,0,0,0,.07-0.2,0.91,0.91,0,0,0,0-.15c0-.16-0.06-0.3-0.07-0.46l0.3-.1c0-.26,0-0.54,0-0.81a2.93,2.93,0,0,1,.31-0.22,1.42,1.42,0,0,0,.25-0.73,7.44,7.44,0,0,0,0-.91c0.13,0,.28,0,0.38,0a0.23,0.23,0,0,0,.13-0.13c0-.08,0-0.18,0-0.29h-0.41v-0.41a2.77,2.77,0,0,0,.91-0.21c0-.61.29-1,0.31-1.63,0.23-.19.49-0.34,0.72-0.53-0.07-.17-0.15-0.35-0.2-0.51h0.31a2.13,2.13,0,0,0,0-.67,2.27,2.27,0,0,1-.17-0.55c0.13,0,.27-0.06.39-0.11h-0.6c0-.13,0-0.28,0-0.41l0.6-.1,0.16,0.16s0,0,0,0c0.1-.3.21-0.6,0.3-0.91a1,1,0,0,0-.15-0.15,0.85,0.85,0,0,1,0-.26,1.17,1.17,0,0,0,.5-0.1c0-.3-0.28-0.42-0.3-0.72l0.71,0.11a0.91,0.91,0,0,1,.52-1.23,1.21,1.21,0,0,1-.29-0.64,1,1,0,0,1,0-.29,0.57,0.57,0,0,1,.08-0.13c0.08-.13.16-0.27,0.24-0.39l0.6-.2c0.2-.83.41-1.63,0.61-2.46h-0.3c0-.1.06-0.21,0.1-0.31l0.4-.1c-0.06-.3-0.13-0.63-0.21-0.92-0.1,0-.21,0-0.3,0a4.68,4.68,0,0,0,0-.71h0.3a1.61,1.61,0,0,1,.45-0.4,0.68,0.68,0,0,0,.15-0.27,2.72,2.72,0,0,0,.13-0.3,2.08,2.08,0,0,0,0-.41,1.09,1.09,0,0,1,.48-0.79c-0.06-.13-0.14-0.27-0.19-0.4h0.5l0.31-.63c-0.08-.12-0.13-0.28-0.22-0.4s-0.28,0-.4,0c0-.17.07-0.34,0.1-0.51l0.62-.2c0.05-.16.11-0.3,0.16-0.46a0.68,0.68,0,0,0,0-.16,0.27,0.27,0,0,0-.15-0.13,0.4,0.4,0,0,1-.15-0.13,0.51,0.51,0,0,1,.11-0.49,1.1,1.1,0,0,0,.19-0.47h0.3c0.27-.55.54-1.11,0.81-1.65l0.31-.09a5.07,5.07,0,0,1,.59-2.29,1.32,1.32,0,0,0,.13-0.3,3.3,3.3,0,0,0,0-.41v-1.22l0.31-.21a6.5,6.5,0,0,1,.15-0.93,14.41,14.41,0,0,0,.78-2.45h0.3a14.29,14.29,0,0,1,.4-1.54,2.46,2.46,0,0,0,.12-0.53,3.85,3.85,0,0,0-.06-0.46c0-.16,0-0.32,0-0.47l0.26-.09a2,2,0,0,0,.25-0.1,0.68,0.68,0,0,0,.13-0.33c0.09-.37,0-0.86.11-1.21a1.93,1.93,0,0,1,.3-0.59l0.33-.55a1.51,1.51,0,0,0,.2-0.69,3.48,3.48,0,0,1,.1-0.79,1.62,1.62,0,0,1,.35-0.53,1.19,1.19,0,0,0,.23-0.66c-0.75-.38-1.07-1.19-2.15-1.23C211.06,326.37,211.06,326.38,211.06,326.38Zm-1.24,20.4c0.1,0,.22,0,0.31,0a2.59,2.59,0,0,1,0,.31h-0.4a5.63,5.63,0,0,1-.42,1.74,0.49,0.49,0,0,1,.33.2c0,0.05,0,.13.05,0.18a0.2,0.2,0,0,0,.13.11c0.07-.4.14-0.81,0.2-1.21a1.07,1.07,0,0,1,.93-0.3,0.79,0.79,0,0,0,.17.13,2.27,2.27,0,0,0,.56,0,1.52,1.52,0,0,1,.19-0.62h-0.19a0.79,0.79,0,0,1-.23.24,1.12,1.12,0,0,1-.4.07c0-.27-0.07-0.55-0.1-0.82l0.92,0.1,0.16,0.23s0,0.07,0,.06a1.28,1.28,0,0,1,0-.35,0.59,0.59,0,0,1,.36-0.16l0.41-.09,0.2,0.51-0.5.1h0.3v0.31h-0.4v0.92h0.2v-0.32h0.51a0.39,0.39,0,0,0,.51.42v-0.42c0.32,0,.49-0.26.82-0.3a1,1,0,0,0,.82.71v-0.35a1.76,1.76,0,0,1,0-.35,1.06,1.06,0,0,1,.09-0.17c0.11-.16.22-0.32,0.31-0.47a2.86,2.86,0,0,1-.2-0.31c0.13-.17.29-0.33,0.41-0.51-0.08-.12-0.14-0.26-0.21-0.4,0.84-.65.85-2.06,1.17-3.2,0.08-.27.18-0.54,0.29-0.8,0.49-1.32.77-2.89,1.15-4.32,0.15-.57.33-1.13,0.5-1.7a11.06,11.06,0,0,0,.6-3.74,16,16,0,0,1-1.67-1.51c-0.26-.27-0.52-0.54-0.76-0.83a3.65,3.65,0,0,1-.65-0.95l-0.71-.21C213.38,334.4,211.73,340.72,209.82,346.78Zm-29.47-17v-0.11a1.45,1.45,0,0,0-.2,0Zm-0.62.09v0.1a1.06,1.06,0,0,0,.19-0.19Zm-0.53.62h-0.09v0.09c0.12-.08.25-0.2,0.38-0.3a0.26,0.26,0,0,1,.23-0.1,0.87,0.87,0,0,0-.11-0.2C179.49,330.11,179.36,330.29,179.21,330.45Zm-0.3.42H179c0-.1,0-0.22,0-0.31C179,330.67,178.94,330.77,178.91,330.87Zm-0.2.29h0.11a1,1,0,0,0-.11-0.18v0.18Zm-1.34,3h0.11c0-.21,0-0.43,0-0.63A1.22,1.22,0,0,0,177.37,334.16Zm32.13,15.31-0.59.3a7.86,7.86,0,0,1-.58,2.64c-0.15.39-.31,0.77-0.47,1.15s-0.34.75-.49,1.13a10.81,10.81,0,0,0-.26,1.36,11.28,11.28,0,0,1-.4,1.21c-0.25.69-.53,1.37-0.77,2.06,0,0.1-.09.2-0.11,0.3s0,0.17,0,.26,0,0.34-.05.51,0,0.18,0,.25a1,1,0,0,1-.07.15c-0.08.15-.15,0.32-0.21,0.47-0.41,1.09-.55,2.45-1,3.49a4.74,4.74,0,0,0-.46,1.34h0.21V366a1.08,1.08,0,0,0,.21-0.74,1.69,1.69,0,0,1,.25-0.7c0.17-.3.37-0.57,0.53-0.89a1,1,0,0,0,.13-0.34c0-.14-0.09-0.27-0.1-0.41s0.21-.13.3-0.21c0-.34.07-0.68,0.1-1l0.31-.11c0-.34.05-0.67,0.08-1a2,2,0,0,1,0-.34,0.91,0.91,0,0,1,.11-0.18,4.51,4.51,0,0,1,.41-0.46,1.27,1.27,0,0,0,.4-0.77,3.72,3.72,0,0,0,0-.46c0-.16,0-0.31,0-0.46,0.14,0,.29.08,0.41,0.09a1.87,1.87,0,0,0-.11-0.7l0.61-.42c-0.09-.15-0.22-0.28-0.3-0.42h0.3v-0.31a2.38,2.38,0,0,0,.3-0.11c-0.1,0-.21,0-0.3,0,0-.2,0-0.42,0-0.6,0.17,0,.35,0,0.51,0V356c0.16-.08.34-0.2,0.51-0.3-0.13,0-.28,0-0.4,0s0-.34,0-0.49h0.3v-0.32l0.3-.09a1.94,1.94,0,0,0-.21-0.32h-0.4v-0.31a1.34,1.34,0,0,1,.71-0.21l-0.1.51a1.26,1.26,0,0,1,.68.37,0.72,0.72,0,0,1,.09.2,0.64,0.64,0,0,1,0,.25,1.56,1.56,0,0,1-.1.21,0.53,0.53,0,0,1,.3.11,0.71,0.71,0,0,0-.07-0.29,4.62,4.62,0,0,1,0-.73,2.41,2.41,0,0,0,.3-0.12,0.64,0.64,0,0,1-.34-0.1,1.07,1.07,0,0,1-.06-0.41c0.14-.07.28-0.12,0.41-0.2l-0.21-.1a0.79,0.79,0,0,0-.21-0.1,1.12,1.12,0,0,0-.15,0,6.56,6.56,0,0,1-1.28.16,1.86,1.86,0,0,1,.25-1.07,1.19,1.19,0,0,0,.16-0.29,1.06,1.06,0,0,0,0-.25l0-.25,0.39-.3a0.42,0.42,0,0,0,.12-0.11,0.82,0.82,0,0,0,0-.16c0-.4.06-0.79,0.08-1.17,0.05-.11.17-0.17,0.23-0.28a1.35,1.35,0,0,0,.08-0.43H209.5Zm0.33,1.53h0.1a1.46,1.46,0,0,0-.1-0.2V351Zm0.62,1h0.1a1.38,1.38,0,0,0-.1-0.19V352Zm-0.31.41a0.31,0.31,0,0,0,.11,0c0-.06-0.07-0.13-0.11-0.19v0.2Zm0.31,3.81h0.1a2.19,2.19,0,0,0-.1-0.21v0.21Zm-0.92.19,0.79-.1a1.39,1.39,0,0,1-.79-0.2v0.3Zm4.8,1.21c0.14-.07.28-0.13,0.41-0.21l-0.41-.1v0.3Zm-3.9.63h0l-0.59.1v0.2h0.93v-0.2A1,1,0,0,1,210.42,358.28Zm0.33,0.82v0.31c-0.1,0-.2.06-0.3,0.11H211a0.64,0.64,0,0,0-.1-0.41h-0.1Zm4.7,0.3a1,1,0,0,0-.21-0.11,2.21,2.21,0,0,0-.35,0h-0.36a0.41,0.41,0,0,0,0,.11,1.54,1.54,0,0,1,.42.93h0.2a4.61,4.61,0,0,0-.1-0.61l0.62-.11v-0.1Zm-3.19,6.5c-0.43.25-1.22,0.07-1.67,0.31a1.84,1.84,0,0,0-.49.73,0.36,0.36,0,0,1-.18.19,1.61,1.61,0,0,1-.36,0h-0.36a1.52,1.52,0,0,0-.61,1.53c-0.12.21-.24,0.43-0.36,0.63a0.11,0.11,0,0,0,0,.09,0.49,0.49,0,0,0,.23-0.07,6.3,6.3,0,0,1,1.59-.13,18.44,18.44,0,0,1,1.18-1.59,7.73,7.73,0,0,0,.59-0.8c0.17-.29.33-0.58,0.49-0.89,0,0,0,0,0,0h0Zm-8.49.8-0.1.31h0.1a0.59,0.59,0,0,1,.1-0.31h-0.1Zm-26.11,1.46c-0.08,0-.15-0.08-0.24-0.11a4.42,4.42,0,0,0-1.62-.15,4,4,0,0,0-1.14.16c-0.32.11-.61,0.24-0.92,0.38a10,10,0,0,0-1.66,1,3.28,3.28,0,0,0-.68.62c-0.18.25-.34,0.53-0.51,0.8a2.23,2.23,0,0,1-1.41,1.22,1.61,1.61,0,0,0-.78,0l-0.75.12h0a4.65,4.65,0,0,1-.53.95,0.62,0.62,0,0,0-.1.27c0,0.27-.05.57-0.08,0.85a1.08,1.08,0,0,1,0,.18,1,1,0,0,1-.21.21l-0.42.42a0.9,0.9,0,0,0-.2.22,1.45,1.45,0,0,0,0,.27c0,0.09,0,.19,0,0.28a5,5,0,0,1,0,.56,1.86,1.86,0,0,1-.16.33c-0.74,1.61-1.16,3.48-1.83,5.14a1.77,1.77,0,0,0-.07.17,1.46,1.46,0,0,0,0,.21c0,0.07,0,.14,0,0.21a2.83,2.83,0,0,1-.05.42c0,0.09-.07.19-0.11,0.28-0.32.88-.6,1.79-0.9,2.68a6.43,6.43,0,0,0-.18.62,3.1,3.1,0,0,1-.35,1.25l-1.12.08a6.45,6.45,0,0,1-.93,1.85v1a0.83,0.83,0,0,1-.07.2c-0.31,1-.62,1.94-1,2.88,0.17,0,.34,0,0.5,0a2.05,2.05,0,0,0,.22-0.1,1.47,1.47,0,0,1,.07-1.17,1.18,1.18,0,0,1,.86-0.57l0,0.26a1.49,1.49,0,0,1,0,.27,1.77,1.77,0,0,1,0,.23c0,0.19,0,.38-0.06.57s0,0.09,0,.11h0.07a1.22,1.22,0,0,0,0-.2,0.57,0.57,0,0,1,.08-0.11,10.88,10.88,0,0,0,1.05-3.26c0.11-.39.25-0.76,0.38-1.13,0.5-1.48,1-3,1.53-4.48,0.25-.75.5-1.5,0.74-2.26s0.49-1.52.7-2.32,0.4-1.6.63-2.37a10.89,10.89,0,0,1,.39-1.11,2,2,0,0,1,.61-0.9,1.24,1.24,0,0,1,.42-0.07l0.44-.05a10.68,10.68,0,0,0,1.24,1.75,0.86,0.86,0,0,1,.2.23,1.81,1.81,0,0,1,0,.33c0,0.11,0,.22,0,0.32a10.39,10.39,0,0,1-1,3.4,1.64,1.64,0,0,0-.1.24,3.3,3.3,0,0,0,0,.46,4.48,4.48,0,0,1,0,.46,2.28,2.28,0,0,1-.13.32c-0.22.53-.45,1-0.62,1.61a1.21,1.21,0,0,0-.07.38v0.22a1.07,1.07,0,0,1,0,.22,0.7,0.7,0,0,1-.15.17,0.78,0.78,0,0,0-.17.17,2.34,2.34,0,0,0-.17.8,7.2,7.2,0,0,1-.11.86,1.62,1.62,0,0,1-.3.67,1.58,1.58,0,0,0-.34.63c-0.24,0-.49.07-0.71,0.09a9.38,9.38,0,0,0,.21-1.22,1,1,0,0,0-.11-0.11,0.5,0.5,0,0,1-.3.1l0.11,0.61-0.42-.19a5.88,5.88,0,0,1-.63,2.28c-0.1.22-.21,0.45-0.29,0.69a0.07,0.07,0,0,0,0,0,3.82,3.82,0,0,0,0,.5v0.25a1.23,1.23,0,0,1,0,.25,0.77,0.77,0,0,1-.2.22,0.26,0.26,0,0,0-.19.34c0,0.23,0,.42.06,0.64a1.33,1.33,0,0,1,0,.26,1.13,1.13,0,0,1-.19.33,0.73,0.73,0,0,0-.1.38h0.08a0.58,0.58,0,0,1,0-.12,1.89,1.89,0,0,1,.15-0.25,2.31,2.31,0,0,1,.16-0.24h0.61c0-.1.07-0.2,0.1-0.31a0.89,0.89,0,0,0,.22-0.51,2.82,2.82,0,0,0-.13-0.48,1,1,0,0,1,.07-0.52,8,8,0,0,1,.55-0.66c-0.08-.2-0.14-0.41-0.21-0.61l0.25-.31a0.26,0.26,0,0,0,.06-0.1h-0.1a0.65,0.65,0,0,1-.61.51l0.1-.93c0.18,0,.34-0.15.54-0.18a3.51,3.51,0,0,1,.69,0,6.14,6.14,0,0,1-.45,1.87,1,1,0,0,0-.05.3c0,0.15.07,0.31,0.1,0.48s-0.22.08-.31,0.13c-0.06.75,0,1.57,0,2.34a0.91,0.91,0,0,1,.35.27,0.66,0.66,0,0,0,.41.22,1.22,1.22,0,0,1,.25.06l0.54,0.24a0.16,0.16,0,0,0,.1,0v-0.3a7.73,7.73,0,0,1,1.53-.52c0.07,0.21.14,0.41,0.2,0.62l0.21-.11c0.06-.14.14-0.27,0.2-0.41l-0.23-.77c0-.09,0-0.18-0.08-0.26a0.92,0.92,0,0,0-.34-0.32,0.62,0.62,0,0,1-.27-0.4,2.58,2.58,0,0,1,1.24.32,4.12,4.12,0,0,1,.79-1.63,1,1,0,0,0,.13-0.22,3.41,3.41,0,0,0,0-.49,0.52,0.52,0,0,1,.14-0.17,0.85,0.85,0,0,0,.17-0.18c0.2-.37.12-0.89,0.29-1.31l0.16-.16a0.62,0.62,0,0,0,.15-0.17,1.2,1.2,0,0,0,0-.23l0-.23a3.1,3.1,0,0,1,.06-0.46c0-.12.1-0.24,0.15-0.36a18.76,18.76,0,0,0,.64-1.95c0.3-1.07.58-2.15,0.92-3.21s0.72-2,1.09-3,0.7-1.9,1-2.86a0.46,0.46,0,0,0,0-.19,0.22,0.22,0,0,0-.18.1,2.34,2.34,0,0,1-.5.35,5.47,5.47,0,0,1-2.84.58,3.65,3.65,0,0,1-1.77-.51,1.75,1.75,0,0,1-.85-1.44,1.41,1.41,0,0,1,1.1.59,1.63,1.63,0,0,0,.88.6l0.18,0,0.12,0.06a1.09,1.09,0,0,0,.44.07,3.64,3.64,0,0,0,1.09-.27l0.52-.17a7.9,7.9,0,0,0,1.83-.87,13.16,13.16,0,0,0,2.63-2.45,0.73,0.73,0,0,1,.17-0.17,3.35,3.35,0,0,1,.41,0V373a1.6,1.6,0,0,0-.85.87,0.32,0.32,0,0,0-.06.16h0.08a0.3,0.3,0,0,0,0-.11,2,2,0,0,1,1.53-.81,9.62,9.62,0,0,1-.82,3.6c-0.1.26-.2,0.52-0.31,0.79a3.21,3.21,0,0,0-.26.85,5.23,5.23,0,0,1-.17.92c-0.09.28-.19,0.55-0.29,0.82-0.38,1.07-.76,2.18-1.13,3.29a7.16,7.16,0,0,0-.24.86,7.76,7.76,0,0,1-.45,1.76,0.89,0.89,0,0,1-.54.55v-0.3h-0.62c0-.08-0.11-0.16-0.16-0.24a0.1,0.1,0,0,0,0-.06c-0.52,2.55-2,4.19-2.05,7.18,0.16-.06.37,0,0.53-0.12a1.54,1.54,0,0,0,.2-0.12l0.41-.26a0.82,0.82,0,0,0,.2-0.13,1.6,1.6,0,0,0,0-.33,16.52,16.52,0,0,1,.5-1.93h0.29v1h0.22a14.55,14.55,0,0,1,.93-2.68,4.9,4.9,0,0,0,.32-0.89c0.08-.38,0-0.75.11-1.09a4.71,4.71,0,0,1,.32-0.89c0.2-.49.42-1,0.6-1.5a1.67,1.67,0,0,0,.08-0.22c0-.21,0-0.42,0-0.62a1.6,1.6,0,0,1,.08-0.25c0.52-1.56,1-3.16,1.55-4.66,0.12-.32.26-0.63,0.36-1,0.14-.5.19-1.12,0.32-1.64a2.49,2.49,0,0,1,.15-0.51,2.25,2.25,0,0,1,.19-0.25,0.9,0.9,0,0,0,.16-0.28,8.12,8.12,0,0,1,.36-1.41,3.2,3.2,0,0,1,.38-0.51,4.3,4.3,0,0,0,.82-1,4,4,0,0,0,.25-1.52c-0.18,0-.34-0.15-0.53-0.19a2.85,2.85,0,0,0-.68,0c-0.46,0-.9.08-1.35,0.1C178.66,369.45,178.49,368.5,177.66,368.15Zm23.19,8.52a11.22,11.22,0,0,1-.84,2.85h0.13v-0.1c0.61-.63.61-1.87,0.95-2.77h-0.23A0,0,0,0,0,200.85,376.67Zm7.54,0.92a19.59,19.59,0,0,0,.15,5,2.6,2.6,0,0,1,.06.3c0,0.25,0,.51,0,0.77,0,1.29,0,2.6,0,3.82a13.14,13.14,0,0,0,.24,2.07,3.75,3.75,0,0,1,0,.75,36,36,0,0,0,.18,5.23c0,0.22.08,0.44,0.12,0.65a2.48,2.48,0,0,1,0,.38c0,0.64,0,1.3,0,1.93a2,2,0,0,0,.05.33c0.36,1.86.16,4.22,0.36,6.21,0,0.36.07,0.71,0.13,1,0,0.11.06,0.21,0.06,0.32,0,0.29,0,.59,0,0.89v2.23a2.08,2.08,0,0,0,.05.4c0.33,1.82.09,4.05,0.39,5.86a6.05,6.05,0,0,1,.13.77c0,0.58,0,1.16-.05,1.72a3.59,3.59,0,0,0,.16,1.5s0,0.07,0,.05c0-.76.56-1.14,0.72-1.78a2.12,2.12,0,0,0,0-.58,14.46,14.46,0,0,0-.24-1.65c-0.11-.58-0.23-1.26-0.37-1.83a1.29,1.29,0,0,1,0-.29,29.21,29.21,0,0,0-.27-5.37,1.55,1.55,0,0,1,0-.28v-1.57a11,11,0,0,0-.23-2.28c-0.11-.51-0.24-1-0.37-1.51a2.85,2.85,0,0,1-.12-0.51,3.84,3.84,0,0,1,.06-0.75c0.1-.71.29-1.38,0.34-2.12a1.44,1.44,0,0,0,0-.38,14.86,14.86,0,0,1-.25-2.61,30.7,30.7,0,0,0-.31-5.41,3.87,3.87,0,0,1,0-.8c0-.94,0-1.92,0-2.86a2,2,0,0,0,0-.37,61.79,61.79,0,0,1-.36-6.19c0-.25,0-0.51,0-0.78,0-.53.08-1,0.08-1.56a2.91,2.91,0,0,0-.07-0.79H208.4S208.39,377.58,208.39,377.59Zm-9.46,5h0.24a9.22,9.22,0,0,1,.6-2,1.49,1.49,0,0,0,.13-0.86h0C199.56,380.68,199.25,381.64,198.93,382.6Zm-13.33,2.67a1.17,1.17,0,0,0,.11-0.22c0-.19,0-0.41,0-0.61s0-.12,0-0.18c0.1-.48,0-1.07.09-1.55a2,2,0,0,1-.49,1,1.56,1.56,0,0,1-1.15.15,1,1,0,0,0-.43,0,0.63,0.63,0,0,0-.13.18l-0.27.36a0.64,0.64,0,0,0-.13.19,0.7,0.7,0,0,0,.06.17,1.6,1.6,0,0,1,.15.53,2.85,2.85,0,0,0-.73,1.75,2.32,2.32,0,0,0,.52-0.1,0.88,0.88,0,0,1,.34-0.77,1.2,1.2,0,0,0,.18-0.46c0.2,0,.42,0,0.61,0a5.35,5.35,0,0,1-.66,2.92s0,0,0,.06l0.42,0.07A33,33,0,0,1,185.6,385.28Zm12.73-.83h0.12c0-.25.13-0.49,0.15-0.72a0.29,0.29,0,0,0,0-.2A3.56,3.56,0,0,0,198.33,384.45Zm-0.12.31h0.12l-0.12-.2v0.2Zm-1.2,3.19h0.12c0-.17,0-0.35,0-0.5C197.09,387.61,197,387.77,197,387.94Zm-0.48,1.22a0.34,0.34,0,0,0,.12,0c0-.06-0.07-0.13-0.12-0.19v0.19Zm-12.77,1a4.57,4.57,0,0,1,.06-0.51A0.45,0.45,0,0,0,183.76,390.18Zm1.13,3.73c0,0.06,0,.12,0,0.17a0.61,0.61,0,0,1-.06.12,1.11,1.11,0,0,0-.07.47,10.45,10.45,0,0,0,.43,1.78c0.65,0,1.32.06,1.95,0q0.06-.77.11-1.54c-0.14-.24-0.27-0.49-0.42-0.72-0.74,0-1.19-.31-1.93-0.31C184.89,393.89,184.89,393.9,184.89,393.91Zm-16.73.81v0.2h0.21v-0.2h-0.21Zm11.2,0.67a3.34,3.34,0,0,0,.37,1.55s0,0,0,0a3.74,3.74,0,0,0-.4-2.24A6.44,6.44,0,0,0,179.35,395.38Zm-4.43.83a3.69,3.69,0,0,0,.38,1.83s0,0,0,0a12.31,12.31,0,0,0-.12-1.4,4.53,4.53,0,0,0-.28-1.24h0C174.92,395.68,174.91,396,174.92,396.22Zm-4.26,2.41a0.1,0.1,0,0,0,.07.07v-0.29c-0.28-.44-0.09-1.35-0.42-1.75A3.91,3.91,0,0,0,170.66,398.63Zm-2.1-.63h0.21v-0.2h-0.1c-0.07-.06-0.13-0.14-0.2-0.2C168.5,397.73,168.53,397.86,168.57,398Zm6.78,0.41h0.09c0-.07-0.06-0.14-0.09-0.2v0.2Zm15.7,3.91,0.21-.1c0.15-.08.29-0.12,0.42-0.2a2,2,0,0,0,.43-0.47,4.27,4.27,0,0,0,.65-1.17,1.21,1.21,0,0,0,.05-0.83h0c-0.4.42-.85,0.84-1.23,1.3a4.07,4.07,0,0,0-.92,1.59A0.57,0.57,0,0,0,191,402.31ZM204,404.36h0.1a1.51,1.51,0,0,0-.1-0.21v0.21Zm-0.4,4h0.1a5.58,5.58,0,0,0-.31-1.74A6.78,6.78,0,0,0,203.57,408.36Zm-33.65-.2a1.55,1.55,0,0,0,0,.31h0.41v-0.31h-0.4Zm0.09,1.43a1.39,1.39,0,0,0-.1.12l0.21,0.09a0.91,0.91,0,0,1,.1-0.1Zm-0.3,1.75h0.92c0,0.11.06,0.21,0.1,0.31,0-.17,0-0.35,0-0.51Zm38.85,3.52a2.47,2.47,0,0,0-.16,1.51c0.06,0.16.14,0.31,0.21,0.46s0.13,0.31.21,0.47a3.07,3.07,0,0,0,.33-0.8,6.31,6.31,0,0,0,.14-1,3.86,3.86,0,0,0-.25-2h0A8.76,8.76,0,0,1,208.55,414.85Zm-33.07,10a9.7,9.7,0,0,0,.66,1.36,6.71,6.71,0,0,0,.85,1.17,3.07,3.07,0,0,0,.83.68,1,1,0,0,0,.37.13,1.29,1.29,0,0,0,.25-0.1c0.61-.21,1.59,0,2.27-0.19,0.38-.08.74-0.2,1.1-0.31l1.07-.33a1.85,1.85,0,0,1,.27-0.09l0.32,0,1.27-.14a6.11,6.11,0,0,0,.61-0.1,14.8,14.8,0,0,0,2.34-.48,13.58,13.58,0,0,0,1.83-1,5.24,5.24,0,0,1,2.15-.66,10,10,0,0,1,3.24.21,1.61,1.61,0,0,1,.52.18l0.63,0.42a1.45,1.45,0,0,0,.21.14,1.22,1.22,0,0,0,.76-0.08,6.33,6.33,0,0,1,.7-0.21,2.26,2.26,0,0,1,.82,0,5.84,5.84,0,0,0,.82.09,9.5,9.5,0,0,0,3.17-.45,13.81,13.81,0,0,0,2.58-1.05c0.79-.42,1.69-0.72,1.74-1.9-0.56-.75-0.6-2.18-1.65-2.5a1.29,1.29,0,0,0-.53-0.07c-0.2,0-.38.08-0.6,0.1a2.2,2.2,0,0,1-.72,1,5.31,5.31,0,0,1-1,.69,4.52,4.52,0,0,1-1.29.43,2.39,2.39,0,0,1-1.47-.17,9.37,9.37,0,0,1-2,1.36,1.85,1.85,0,0,1-.72.13,3.45,3.45,0,0,1-.73-0.12,7.38,7.38,0,0,1-.94-0.33,1.28,1.28,0,0,0-.3-0.12,0.71,0.71,0,0,0-.16.06,1.32,1.32,0,0,0-.4.28,2,2,0,0,1-.44.47,1.5,1.5,0,0,1-.29,0l-1.29.15-0.49.09c-0.66.12-1.35,0.21-2,.29a16.69,16.69,0,0,1-2.18.13,3,3,0,0,1-.53,0,5.24,5.24,0,0,1-.83-0.33,1.53,1.53,0,0,0-.48-0.1,0.59,0.59,0,0,0-.18.18l-0.19.19a2.09,2.09,0,0,1-1.41.45,1.66,1.66,0,0,1-.38,0h0l-0.22-.09c-0.56-.19-1.36-0.13-1.93-0.32h0a3.32,3.32,0,0,1-1.33.47,2.56,2.56,0,0,1-.81-0.08,9.76,9.76,0,0,1-3.09-1.41,0.41,0.41,0,0,1-.3.4,1.49,1.49,0,0,1-.45,0l-0.19,0a0.77,0.77,0,0,0-.18,0A5.93,5.93,0,0,0,175.48,424.83Zm-4.35,4.27V429c-0.1,0-.2-0.08-0.3-0.09ZM196,429.61a8.85,8.85,0,0,1-2.47.41c0,0.19,0,.34,0,0.52a3.33,3.33,0,0,1-.07.33c-0.06.28-.13,0.54-0.19,0.82a0.65,0.65,0,0,0,0,.16,0.27,0.27,0,0,0,.06.09,2.39,2.39,0,0,1,.18.28,0.86,0.86,0,0,1,.11.49,0.6,0.6,0,0,1-.14.31,0.59,0.59,0,0,0-.11.18,1.68,1.68,0,0,0,0,.17,4,4,0,0,1,0,.52,1.41,1.41,0,0,0,0,.49,0.83,0.83,0,0,0,.53.38,6.59,6.59,0,0,0,2.12.09,3.42,3.42,0,0,0,.44,0h0a1.48,1.48,0,0,1,.32-0.11,7.27,7.27,0,0,1,1.22-.1,10,10,0,0,0-.07-2.45,22.78,22.78,0,0,1-.24-2.37A5.66,5.66,0,0,0,196,429.61Zm2.45,0.42a6.27,6.27,0,0,0,1,.6v-0.71a4.3,4.3,0,0,0-1-.31C198.42,429.74,198.43,429.89,198.43,430Zm-11.41.61a1.19,1.19,0,0,1-.27.2,1.46,1.46,0,0,1-.25,0h-0.77a1.27,1.27,0,0,1,.51.82l-0.35.15a1.69,1.69,0,0,0-.41.21s-0.05,0,0,.05a1.74,1.74,0,0,0,.39-0.1c0,0.13,0,.28,0,0.4h-0.29c0,0.14-.07.27-0.1,0.41h0.2v-0.3l0.62-.1a0.84,0.84,0,0,0,.05.36,1.36,1.36,0,0,1-.1.75c-0.13.34-.29,0.6-0.44,0.92a1,1,0,0,0-.13.73,2.49,2.49,0,0,1,0-.29L186,435c0-.14,0-0.29,0-0.42,0.2,0,.41,0,0.61,0v0.51a2.44,2.44,0,0,0,.82.11c-0.08-1.55,0-3.14,0-4.71A0.93,0.93,0,0,0,187,430.63Zm20.35,1.2a3.86,3.86,0,0,0,0,1.61c0.09,0.5.2,1,.24,1.56a3.16,3.16,0,0,1,0,.83,1.4,1.4,0,0,1-.27.63h0c-0.51.45-1.47,0.48-2,.91a0.1,0.1,0,0,0,0,.07,3.66,3.66,0,0,1,.57,3,2.08,2.08,0,0,1-.28.69,1.33,1.33,0,0,1-.53.44,1.54,1.54,0,0,0-.84.62,0.85,0.85,0,0,0-.1.39,0.46,0.46,0,0,0,.05.14c0.13,0.3.12,0.76,0.24,1.07a5.55,5.55,0,0,0,.49,1,3.78,3.78,0,0,0,1.47,1.5,31.17,31.17,0,0,1,.83-3.64,7.18,7.18,0,0,0,.21-0.91c0.25-2,.5-4,0.74-6,0-.33.1-0.67,0.13-1a15,15,0,0,0,0-3.2,2.42,2.42,0,0,0-.23-0.88h0A4.39,4.39,0,0,0,207.36,431.84Zm-22.89.24h0.21c0-.17,0-0.35,0-0.51C184.61,431.74,184.54,431.9,184.47,432.07Zm0.31,1.13h0.82v-0.1l-0.82-.11v0.21Zm12.41,12.13a4,4,0,0,0,.16.86,0.79,0.79,0,0,1,0,.43,0.94,0.94,0,0,1-.13.26,0.11,0.11,0,0,0,0,.07h0.4a3.22,3.22,0,0,0,.2-0.3,1.1,1.1,0,0,1-.29-0.55,1.37,1.37,0,0,0-.31-0.78h0v0Zm-2.87,2,0.21-.11v-0.09c-0.17,0-.35,0-0.51,0Zm-1.85,1.25c0,1.56-.18,3.13-0.1,4.72,0,0.5.12,1,.18,1.44a16.11,16.11,0,0,1,0,3.08,15.54,15.54,0,0,0-.06,2.7c0,0.12,0,.24,0,0.36a3.43,3.43,0,0,1-.06.42c0,0.14,0,.28-0.07.41a3.58,3.58,0,0,0,0,.91c0,0.29.12,0.55,0.13,0.84a8,8,0,0,1,0,.92,3.55,3.55,0,0,0,0,.89,7.13,7.13,0,0,1,.08.89,15.94,15.94,0,0,1-.12,2.74c0,0.28-.1.55-0.14,0.83a15.57,15.57,0,0,0-.05,1.86c0,0.62.05,1.23,0.1,1.83s0.12,1.16.21,1.72a1.1,1.1,0,0,0,.19,0,0.31,0.31,0,0,0,0-.11c0.66-.27.58-1.38,0.52-2.25a2.57,2.57,0,0,1,0-.39,1.49,1.49,0,0,1,.1-0.25,2.14,2.14,0,0,0,.06-0.29,8.29,8.29,0,0,0,0-1.94c-0.07-.84-0.15-1.69-0.15-2.59a6.17,6.17,0,0,1,0-.65c0-.2.06-0.39,0.1-0.59a11,11,0,0,0,.09-1.27c0-.46,0-0.91,0-1.34,0-.22,0-0.43,0-0.64s0-.21,0-0.3a2.84,2.84,0,0,1,0-.31c0-.09,0-0.2,0-0.3a21.22,21.22,0,0,0,.1-2.19,16.55,16.55,0,0,0-.08-2.19c0-.09,0-0.18,0-0.28a5,5,0,0,1,0-.53c0-.88,0-1.77.08-2.64a2.74,2.74,0,0,0,0-.52,41.65,41.65,0,0,1-.19-4.71l-0.82-.31A0,0,0,0,0,192.48,448.61Zm-1.75,24.81h0.11a1.44,1.44,0,0,0-.11-0.2v0.2Zm-1.33,11.09,0.51,0.09v-0.19c-0.13-.11-0.26-0.22-0.4-0.32C189.47,484.24,189.43,484.36,189.4,484.51Zm5.62,0.1-0.79.1c-0.12.13-.26,0.32-0.39,0.47a0.49,0.49,0,0,0-.13.16,0.52,0.52,0,0,0,0,.15l0,0.15a13.84,13.84,0,0,0,1.54.1,4.33,4.33,0,0,0,.31-0.43c-0.1-.2-0.21-0.4-0.3-0.61A1.75,1.75,0,0,0,195,484.61Zm-6.13.41c-0.14.2-.27,0.41-0.41,0.62,0.52,0.06,1,.14,1.54.2a5.22,5.22,0,0,0-.11-0.71A1.46,1.46,0,0,1,188.89,485Zm5.85,6.26-0.54.55a0.12,0.12,0,0,0-.06.07h1.31a3,3,0,0,1-.26-0.43,0.74,0.74,0,0,0-.64-0.6h0C194.61,491,194.67,491.14,194.74,491.28Z" transform="translate(-21.54 -22.43)"/></svg>