<?xml version="1.0" standalone="no"?>
<!DOCTYPE svg PUBLIC "-//W3C//DTD SVG 20010904//EN"
 "http://www.w3.org/TR/2001/REC-SVG-20010904/DTD/svg10.dtd">
<svg version="1.0" xmlns="http://www.w3.org/2000/svg"
 width="175.000000pt" height="175.000000pt" viewBox="0 0 175.000000 175.000000"
 preserveAspectRatio="xMidYMid meet">
<metadata>
Created by potrace 1.11, written by Peter Selinger 2001-2013
</metadata>
<g transform="translate(0.000000,175.000000) scale(0.100000,-0.100000)"
fill="#000000" stroke="none">
<path d="M710 1705 c-317 -64 -567 -302 -651 -620 -29 -111 -29 -298 0 -410
76 -293 302 -523 596 -607 106 -30 313 -32 420 -4 232 61 433 220 541 428 166
321 107 717 -145 975 -194 199 -492 292 -761 238z m335 -150 c225 -57 418
-239 491 -461 26 -80 29 -102 29 -219 -1 -115 -4 -139 -28 -208 -41 -119 -83
-184 -176 -277 -141 -141 -292 -203 -491 -204 -127 -1 -188 13 -305 69 -159
76 -281 212 -348 387 -31 80 -32 88 -32 238 0 150 1 158 32 238 92 239 291
407 538 452 66 12 215 4 290 -15z"/>
<path d="M719 1525 c-229 -56 -413 -233 -483 -465 -26 -83 -31 -221 -12 -310
25 -121 95 -250 180 -334 132 -131 259 -186 446 -193 202 -9 336 43 481 187
147 145 207 302 196 509 -9 178 -64 299 -197 431 -92 93 -181 145 -295 175
-73 19 -238 19 -316 0z m167 -30 c5 -20 12 -25 37 -25 l30 0 -22 -24 c-17 -18
-20 -30 -15 -51 l7 -27 -26 17 c-24 15 -27 15 -51 0 -29 -19 -30 -17 -17 19 9
21 6 27 -17 43 l-27 18 35 5 c27 4 36 10 38 28 4 30 20 28 28 -3z m-284 -77
c2 -18 11 -24 38 -28 l35 -5 -24 -17 c-20 -14 -23 -22 -17 -49 l6 -31 -26 17
c-24 15 -27 15 -51 0 l-26 -17 7 27 c5 21 2 33 -15 51 l-22 24 31 0 c25 0 33
5 38 25 8 31 22 32 26 3z m568 -9 c0 -14 7 -19 30 -19 35 0 37 -6 9 -29 -17
-14 -19 -21 -10 -44 12 -31 6 -34 -20 -11 -17 15 -20 15 -45 -1 l-27 -17 6 31
c5 24 2 34 -13 43 -28 18 -25 28 9 28 23 0 30 6 35 25 7 29 26 24 26 -6z m232
-219 c33 0 36 -10 8 -28 -15 -9 -18 -19 -13 -43 l6 -31 -27 17 c-25 16 -28 16
-45 1 -26 -23 -32 -20 -20 11 9 23 7 30 -10 44 -28 23 -26 29 8 29 23 0 30 6
36 28 l8 27 10 -27 c8 -21 17 -28 39 -28z m-999 20 c3 -14 14 -20 31 -20 29 0
34 -14 9 -28 -12 -7 -14 -17 -10 -42 l7 -32 -25 16 c-23 15 -27 15 -50 0 l-25
-16 7 32 c4 25 2 35 -10 42 -25 14 -20 28 9 28 17 0 28 6 31 20 3 11 9 20 13
20 4 0 10 -9 13 -20z m697 -65 c0 -14 9 -43 20 -65 11 -22 20 -42 20 -45 0 -3
-21 -5 -48 -5 -35 0 -50 5 -59 18 -12 20 -60 45 -105 56 -21 5 -28 3 -28 -9 0
-9 9 -15 23 -15 62 0 117 -70 117 -149 0 -88 19 -139 76 -203 30 -33 54 -64
54 -69 0 -31 -68 -57 -177 -66 -67 -5 -72 -7 -75 -31 -7 -55 -84 -56 -95 -2
-3 17 -12 30 -19 30 -10 0 -14 13 -14 43 0 24 -6 49 -12 55 -10 10 -10 17 0
33 11 18 11 24 -4 40 -12 13 -15 28 -10 56 l6 38 -15 -39 c-12 -30 -12 -42 -3
-53 9 -11 9 -19 1 -33 -9 -13 -8 -22 3 -39 12 -17 13 -27 3 -61 -12 -39 -13
-40 -48 -34 -50 8 -104 25 -118 37 -22 17 -14 38 37 94 54 59 65 89 76 198 4
39 13 82 20 96 14 28 68 59 104 59 13 0 20 5 17 13 -8 26 -94 -1 -131 -42 -14
-16 -31 -21 -68 -21 l-48 0 20 40 c11 21 20 53 20 70 l0 30 230 0 230 0 0 -25z
m-770 -220 c7 -18 17 -25 37 -25 l28 -1 -23 -19 c-18 -15 -21 -25 -16 -47 l7
-27 -25 16 c-23 15 -28 15 -38 3 -19 -23 -31 -18 -24 11 5 21 2 31 -17 45
l-24 19 31 0 c25 0 33 5 38 25 4 14 9 25 11 25 3 0 10 -11 15 -25z m1112 3 c2
-16 12 -24 32 -28 28 -5 28 -5 8 -23 -16 -15 -19 -24 -12 -43 11 -28 7 -29
-24 -9 -21 14 -24 14 -36 0 -19 -23 -31 -18 -24 11 5 21 2 31 -17 45 l-24 19
32 0 c26 0 34 5 39 25 8 31 22 32 26 3z m-35 -318 l27 0 -22 -16 c-19 -13 -22
-22 -16 -47 6 -31 6 -32 -13 -14 -11 9 -23 17 -28 17 -5 0 -17 -8 -28 -17 -19
-18 -19 -17 -13 14 6 25 3 34 -16 47 l-22 16 27 0 c22 0 30 6 39 31 l11 31 13
-31 c10 -24 19 -31 41 -31z m-1003 25 c5 -19 13 -25 34 -25 l27 0 -21 -18
c-16 -13 -20 -22 -14 -37 14 -33 11 -36 -14 -20 -23 15 -27 15 -50 0 -27 -18
-30 -14 -16 20 6 15 2 24 -14 37 l-21 18 27 0 c21 0 29 6 34 25 3 14 10 25 14
25 4 0 11 -11 14 -25z m198 -197 c2 -17 11 -24 33 -26 l29 -4 -22 -17 c-20
-15 -22 -21 -12 -45 l11 -29 -26 17 c-24 16 -28 16 -51 1 -24 -16 -24 -15 -18
10 4 18 1 32 -11 45 -18 19 -17 20 8 20 20 0 28 6 33 25 8 31 22 32 26 3z
m606 -28 l26 0 -22 -16 c-19 -13 -22 -22 -16 -47 6 -31 6 -32 -13 -14 -11 9
-23 17 -28 17 -5 0 -17 -8 -28 -17 -19 -18 -19 -17 -13 14 6 25 3 34 -16 47
l-22 16 27 0 c20 0 31 7 39 26 l12 25 13 -25 c10 -18 22 -26 41 -26z m-285
-80 l31 0 -23 -16 c-18 -13 -22 -23 -17 -45 6 -29 5 -29 -19 -13 -24 16 -27
15 -47 -2 -21 -19 -21 -19 -15 13 5 25 2 34 -16 47 l-22 15 28 0 c20 1 30 8
38 29 l11 27 10 -27 c8 -23 16 -28 41 -28z"/>
</g>
</svg>
